<svg xmlns="http://www.w3.org/2000/svg" viewBox="0 0 900 1200"><rect width="900" height="1200" fill="#f5e9df"/><circle cx="450" cy="210" r="88" fill="#c89578"/><path d="M357 198c20-97 159-100 187 2-60-39-126-39-187-2Z" fill="#3c1017"/><path d="M292 307h316l64 340c-119 50-325 50-444 0Z" fill="#691625"/><path d="m300 325-110 320 85 30 112-304m213-46 110 320-85 30-112-304" fill="#691625"/><path d="m325 675 105 0-33 390H250Zm145 0h105l75 390H503Z" fill="#5f0b18"/><circle cx="450" cy="491" r="8" fill="#ad8c4d"/><text x="450" y="1130" text-anchor="middle" fill="#5f0b18" font-family="Georgia,serif" font-size="48" letter-spacing="12">TALIÉ</text></svg>
